<svg id="Слой_1" data-name="Слой 1" xmlns="http://www.w3.org/2000/svg" viewBox="0 0 1165.14 321"><defs><style>.cls-1,.cls-2{fill:#747474;}.cls-2{fill-rule:evenodd;}.cls-3{fill:#222;}</style></defs><title>2engine grey</title><g id="обод"><path class="cls-1" d="M275.34,290.72c-20.23-60-74.18-42.13-74.18-42.13-15,1.38-83.84,30.53-118.75,75.93s8.69,83.67,8.69,83.67,39.44,40,106.14,57.93c56,15,72.72-19.39,78-30.48C285.53,414.1,295.57,350.69,275.34,290.72ZM189.62,449a89.62,89.62,0,1,1,89.62-89.62A89.62,89.62,0,0,1,189.62,449Z" transform="translate(-68.86 -246)"/></g><g id="нижняя_перекладина" data-name="нижняя перекладина"><path class="cls-2" d="M239.59,409.65s-3.5-5.75-4.66-4.78c-1.66,1.39-5.53,4.16-9.52,4.15-19.44,0-49.49.06-71.68,0-2.53,0-4.91-.09-6.73-1a13,13,0,0,1-2.87-2.67c-1.11,0-5.13,3.7-5.13,3.7s-3.61,7.48-1.18,9.6c3.81,3.31,8,4.38,14.19,4.37h46c12.6,0,19.72,0,28,0,7.55,0,11.54-2,14.33-3.91C242.1,417.87,239.59,409.65,239.59,409.65Z" transform="translate(-68.86 -246)"/></g><g id="центральная_перекладина" data-name="центральная перекладина"><path class="cls-1" d="M267.91,355.65V355l-0.82-.44L267,353.21S256.54,347,254.36,348a1.28,1.28,0,0,0-.36-0.11c-0.68,0-1.15-.59-1,0.11,0.07,0.38.25,1.6,0.32,2a1.74,1.74,0,0,1-.16,1.26A4.73,4.73,0,0,1,250,352H119.92c-5.85,0-7.92,5.16-8.92,9.46v2.47s11.23,5.71,13.52,4.36c0.46,0,.7-0.15.65-0.47a2,2,0,0,1,0-.68c0.47-.91,1.06-1.22,3-1.21,30,0.07,107.35,0,132,0C265.61,365.07,267.76,359.55,267.91,355.65Z" transform="translate(-68.86 -246)"/></g><g id="_2" data-name="2"><path class="cls-1" d="M124.84,363.42a65.19,65.19,0,0,1,0-8.42h-5.59c-5.22,0-8.45,2.29-8.52,8.65A78.57,78.57,0,0,0,138.16,419l26.69,0A64.85,64.85,0,0,1,124.84,363.42ZM121.71,319h17.05a63.44,63.44,0,0,1,26.94-20l-27.09,0A72.31,72.31,0,0,0,121.71,319Zm92.09,100c8.39,0,17.14,0,26.55.06a83.2,83.2,0,0,0,16.23-19H239.42A67.9,67.9,0,0,1,213.81,419ZM240,298.92l-27.12.06a64.86,64.86,0,0,1,41,56,65.67,65.67,0,0,1-.06,9.05h5.64c5.31,0,8.59-3.7,8.59-9h0A78,78,0,0,0,240,298.92Z" transform="translate(-68.86 -246)"/></g><g id="верхняя_перекладина" data-name="верхняя перекладина"><path class="cls-2" d="M240,299c-2.18-2.09-6.83-4-12-4H151c-5.06,0-9.81,1.72-11.86,3.56a2.59,2.59,0,0,0-.17.2h0V309s4.93,3,6,3a12,12,0,0,1,6.31-3l0.73,0,1.6,0c19.45,0,52.27.06,71.72,0a13.16,13.16,0,0,1,8.6,3c0.68,0.54,6-3,6-3S241.73,300.66,240,299ZM121.75,319l16.86-19.89,0.32-.32C127.86,306.91,121.75,319,121.75,319Z" transform="translate(-68.86 -246)"/></g><g id="engine_копия" data-name="engine копия"><path class="cls-1" d="M456.42,310.36Q441.75,297,415.48,297H361.92c-16.65,0-30,4.86-40.09,14.65-9.27,8.93-13.83,19.63-13.83,32.16v33.47c0,31.59,18,47.72,54.44,47.72H425c16.13,0,28.07-4.63,35.79-13.56,6.18-7,8.58-15.19,8.58-26.35l-15.19.09c0,7.93-1.24,14.49-6.47,19.36S433.38,412,423.1,412H359.84c-11.54,0-21.4-3.48-27.53-8.71-7-5.95-9.51-14.82-9.51-27.8L323,364H470l0.07-22.24Q470.07,322.71,456.42,310.36ZM322.8,349c0-11,1.43-20.68,7.75-27.16S346.86,310,357.13,310h61.1c11.36,0,23.27,5.69,29.59,12.18S454.2,338,454.2,349H322.8ZM594,298H545.11c-9.62,0-21.84,1.68-28.19,5.32s-9.92,6-12.92,12.07V298H489V425h15V348.1c0-11,4.63-22.35,11.7-28.7s17.08-8.4,28.4-8.4h50.39c11.67,0,23.31,3.42,30.21,9.77S635,336.19,635,347.48v77.14l15,0v-74c0-15.93-4.21-28.21-12.28-37.12C628.28,303.08,613.6,298,594,298Zm220,14.65c-2-3.87-9.55-9-16.16-11.52S782.28,298,773.7,298H720.14c-17.51,0-30.62,4-39.2,12.19S668,330.09,668,345.51v32.38c0,31.18,18,47.11,53.69,47.11h53c10,0,20.32-2.06,27.36-5.84C807.41,416.25,813,412,814,408.69v30.9c0,6.69-3,14.79-9.33,19.51S785.29,466,773.44,466H725c-10,0-21.67-2.82-26.91-6.51S689.76,450,689.76,445H674.31c0,11,4.46,18.54,13.39,24.72S708.47,479,723.23,479h51.5c19.05,0,33.23-3.82,42.33-11.7C825,460.44,829,450.79,829,438.11V298H814v14.65Zm-1,62.83c0,10.79-3.29,19.7-10.23,26.35S785.78,412,772.26,412H727.92c-15.14,0-26.11-3.07-33.32-8.82S684,388.06,684,375.48V346.35c0-12.4,3.17-21.32,9.93-27s17.95-8.38,34-8.38h44.34c13.88,0,24.16,3.21,31.18,9.86C809.93,327,813,335.3,813,346.09v29.39ZM853,264h17V246H853v18Zm0,161h17V297H853V425ZM998.13,298H949.21c-9.62,0-21.89,1.84-28.24,5.49s-10,6.13-13,12.23V298H894V425h14V348.42c0-11,4.68-22,11.75-28.36S936.88,312,948.2,312h50.39c11.67,0,23.26,3.08,30.16,9.43S1039,336.51,1039,347.8v77.14l15,0V351c0-15.93-4.16-28.37-12.23-37.28C1032.33,303.24,1017.7,298,998.13,298Zm213.39,106.51c-5.23,4.87-14.35,7.49-24.62,7.49h-63.27c-11.54,0-21.4-3.48-27.53-8.71-7-5.95-9.51-14.82-9.51-27.8L1087,364h147l-0.14-22.25q0-19.05-13.65-31.38Q1205.54,297,1179.28,297h-53.56c-16.65,0-29.86,4.86-40,14.65A42.86,42.86,0,0,0,1072,343.81v33.47c0,31.59,17.84,47.72,54.23,47.72h62.57c16.13,0,28.07-4.63,35.79-13.56,6.18-7,8.58-15.19,8.58-26.35l-15.19.18C1218,393.2,1216.75,399.65,1211.52,404.51Zm-117.19-82.68c6.31-6.49,16.32-11.84,26.59-11.84H1182c11.36,0,23.27,5.69,29.59,12.18S1218,338,1218,349h-131.4C1086.59,338,1088,328.32,1094.34,321.84Z" transform="translate(-68.86 -246)"/></g><polygon class="cls-2" points="69.65 53.03 68.76 53.76 70.3 53.73 70.93 52.09 69.65 53.03"/><path class="cls-3" d="M345,554h-4v-2.89c-1,.64-1.7,1.12-2.34,1.44a14.8,14.8,0,0,1-6.48,1.44h-11.7c-4.24,0-7.34-.94-9.42-2.82s-3.06-4.84-3.06-8.88v-6.54c0-3.52,1-6.4,3-8.4,2.2-2.16,5.32-3.36,9.48-3.36h11.64a13.44,13.44,0,0,1,6.6,1.62c1,0.6,1.28,1.32,2.28,1.92V512h4v42Zm-4-11.71v-6.48a7.37,7.37,0,0,0-2.34-5.62c-1.6-1.52-4.06-2.2-7.14-2.2h-9.6c-3.4,0-6,.59-7.51,1.93a7.43,7.43,0,0,0-2.41,5.95v6.48a7.06,7.06,0,0,0,2.47,5.89c1.58,1.3,4.13,1.75,7.45,1.75h9.6c3.08,0,5.51-.55,7.05-2.05A7.46,7.46,0,0,0,341,542.29Z" transform="translate(-68.86 -246)"/><path class="cls-3" d="M365,512h5v5h-5v-5Zm5,12v30h-5V524h5Z" transform="translate(-68.86 -246)"/><path class="cls-3" d="M423,524h4v33.13c0,3-.84,5.38-2.68,7-2.12,1.84-5.32,2.9-9.76,2.9h-12a14.28,14.28,0,0,1-8.28-2.2,7.27,7.27,0,0,1-3.12-5.8h4.68a3.66,3.66,0,0,0,1.83,2.87c1.22,0.86,3,1.13,5.31,1.13h11.28c2.76,0,5-.49,6.44-1.59a4.86,4.86,0,0,0,2.3-3.93v-7c0,0.76-1.18,1.48-2.42,2.16a12.75,12.75,0,0,1-6,1.32H402.19c-8.32,0-12.19-3.64-12.19-10.9v-7.54c0-3.59.86-6.55,2.86-8.47s4.9-3.08,9-3.08h12.48a15.23,15.23,0,0,1,5.39,1.09,9.87,9.87,0,0,1,3.29,2.44V524Zm0,18.38v-6.52a7.42,7.42,0,0,0-2.24-5.63c-1.56-1.48-4-2.22-7-2.22h-9.84c-3.56,0-6.11.64-7.61,1.89s-2.27,3.27-2.27,6v6.46c0,2.79.82,4.63,2.42,5.91s4.1,1.72,7.46,1.72h9.84c3,0,5.35-.54,6.89-2A7.3,7.3,0,0,0,423,542.38Z" transform="translate(-68.86 -246)"/><path class="cls-3" d="M447,512h5v5h-5v-5Zm5,12v30h-5V524h5Z" transform="translate(-68.86 -246)"/><path class="cls-3" d="M473,518h4v6h23v4H477v15.43a6.63,6.63,0,0,0,1.84,5,6.36,6.36,0,0,0,4.72,1.54h5.76c3.6,0,6.06-.7,7.38-2.5,0.88-1.2,1.32-2.5,1.32-5.5h4.32a13.48,13.48,0,0,1-2,7.62Q497.29,554,489.73,554h-6.18c-3.4,0-5.94-.9-7.74-2.7s-2.82-4.76-2.82-8.52V528h-4v-4h4v-6Z" transform="translate(-68.86 -246)"/><path class="cls-3" d="M518,542.83a6.14,6.14,0,0,1,2.33-4.92c1.6-1.32,4.13-1.92,7.25-1.92h17.28a8,8,0,0,1,3.71.66,2,2,0,0,1,1.43,1.56V534.1a5.47,5.47,0,0,0-1.49-4.3,7.48,7.48,0,0,0-5.45-1.8H531.61c-3.12,0-5.2.52-6.24,1.48-0.72.68-1.08,1.52-1.08,3.52h-4.44c0-3,.5-4.62,1.5-5.82,1.64-2,4.7-3.18,9.18-3.18h13c3.88,0,6.89,1.13,8.73,3s2.73,4.48,2.73,7.87V554h-5v-2.41a1.88,1.88,0,0,1-1.07,1.2,6.31,6.31,0,0,1-3.83,1.2h-16.8c-3.28,0-5.93-.61-7.61-1.83a6.72,6.72,0,0,1-2.69-5.73v-3.6ZM529.15,539c-2.6,0-4.17.57-5,1.23s-1.12,2-1.12,3.57V546a3.37,3.37,0,0,0,1.09,3c1,0.84,2.61,1.06,5.05,1.06h14.64c4.4,0,6.6-1.64,6.6-5.32a5.16,5.16,0,0,0-1.68-4.22,7.84,7.84,0,0,0-4.92-1.46H529.15Z" transform="translate(-68.86 -246)"/><path class="cls-3" d="M576,554V512h4v42h-4Z" transform="translate(-68.86 -246)"/><path class="cls-3" d="M630,542.83a6.19,6.19,0,0,1,2.4-4.92c1.6-1.32,4.2-1.92,7.32-1.92H657a10.09,10.09,0,0,1,4.14.66,13.38,13.38,0,0,1,1.86,1.56V534.1a5.74,5.74,0,0,0-1.92-4.3,8.65,8.65,0,0,0-5.88-1.8H643.75c-3.12,0-5.2.52-6.24,1.48-0.72.68-1.08,1.52-1.08,3.52H632c0-3,.5-4.62,1.5-5.82,1.64-2,4.7-3.18,9.18-3.18h13c3.88,0,6.82,1.13,8.66,3s2.66,4.48,2.66,7.87V554h-4v-2.41a7.57,7.57,0,0,0-1.5,1.2,7.67,7.67,0,0,1-4.26,1.2h-16.8c-3.28,0-6-.61-7.68-1.83a6.76,6.76,0,0,1-2.76-5.73v-3.6ZM641.29,539c-2.6,0-4.23.57-5.09,1.23s-1.19,2-1.19,3.57V546a3.4,3.4,0,0,0,1.16,3c1,0.84,2.68,1.06,5.12,1.06h14.64c4.4,0,6.6-1.64,6.6-5.32a5.16,5.16,0,0,0-1.68-4.22,7.84,7.84,0,0,0-4.92-1.46H641.29Z" transform="translate(-68.86 -246)"/><path class="cls-3" d="M719,524h4v33.13c0,3-.89,5.38-2.73,7-2.12,1.84-5.37,2.9-9.81,2.9h-12a14.29,14.29,0,0,1-8.28-2.2,7.27,7.27,0,0,1-3.12-5.8h4.68a3.66,3.66,0,0,0,1.83,2.87c1.22,0.86,3,1.13,5.31,1.13h11.28c2.76,0,5-.49,6.49-1.59a4.91,4.91,0,0,0,2.35-3.93v-7c-1,.76-1.23,1.48-2.47,2.16a12.94,12.94,0,0,1-6.07,1.32H698.1c-8.32,0-12.1-3.64-12.1-10.9v-7.54c0-3.59.81-6.55,2.81-8.47s4.85-3.08,8.93-3.08h12.48a15.46,15.46,0,0,1,5.44,1.09,10.06,10.06,0,0,1,3.34,2.44V524Zm0,18.38v-6.52a7.45,7.45,0,0,0-2.29-5.63c-1.56-1.48-4-2.22-7.09-2.22h-9.84c-3.56,0-6.06.64-7.56,1.89s-2.22,3.27-2.22,6v6.46c0,2.79.77,4.63,2.37,5.91s4.05,1.72,7.41,1.72h9.84c3,0,5.4-.54,6.94-2A7.34,7.34,0,0,0,719,542.38Z" transform="translate(-68.86 -246)"/><path class="cls-3" d="M779,539H746v3.35c0,2.88.71,4.78,2.27,6.1,1.36,1.16,3.25,1.54,5.81,1.54h14c2.28,0,4-.1,5.16-1.18A5.89,5.89,0,0,0,775,545h4.32a9.77,9.77,0,0,1-2.16,6.12c-1.8,2.08-4.58,2.88-8.34,2.88H754.26c-8.48,0-12.26-3.69-12.26-11v-7.8a10.08,10.08,0,0,1,3-7.62,12.42,12.42,0,0,1,9.13-3.54h12.48c4.08,0,7.09,1.16,9.37,3.24a9.55,9.55,0,0,1,3,7.44V539Zm-4-3c0-3-.7-4.42-2.1-5.86A7.81,7.81,0,0,0,767,528H753.48a7.34,7.34,0,0,0-5.52,2.14c-1.4,1.44-2.1,2.86-2.1,5.86H775Z" transform="translate(-68.86 -246)"/><path class="cls-3" d="M802,524v5.09c1-1.42,1.59-2.76,3.07-3.61a11.11,11.11,0,0,1,5.59-1.48h11.4c4.56,0,7.93,1.42,10.13,3.86,1.88,2.08,2.81,5.18,2.81,8.89V554h-4V536.16a7.84,7.84,0,0,0-2.49-6,9.33,9.33,0,0,0-6.45-2.16h-11.4a9,9,0,0,0-6.25,2.16,7.65,7.65,0,0,0-2.41,6V554h-4V524h4Z" transform="translate(-68.86 -246)"/><path class="cls-3" d="M886.5,544h4.32a10.45,10.45,0,0,1-1.8,5.9c-2.08,2.88-5.64,4.1-10.68,4.1H865q-6.06,0-9-2.85c-2-1.9-3-4.59-3-8.07v-7.44a11.23,11.23,0,0,1,3-8.22c2.16-2.2,5.29-3.42,9.37-3.42h13c5,0,8.48,1.72,10.56,4.6a9.63,9.63,0,0,1,1.92,6.4H886.5c0-3-.73-4-2.19-5.15a9.25,9.25,0,0,0-6-1.85h-13c-2.56,0-4.71.58-6.11,1.9a7.5,7.5,0,0,0-2.27,5.74v7.44a6.47,6.47,0,0,0,2.39,5.2,8.57,8.57,0,0,0,5.75,1.72h13.14c3.24,0,5.54-.44,6.9-2.16A7,7,0,0,0,886.5,544Z" transform="translate(-68.86 -246)"/><path class="cls-3" d="M905.58,524h4.5l13.8,26h0.84l10.92-26h4.5l-14.88,33.7c-1.44,3.28-2.88,5.74-4.32,6.9A12.47,12.47,0,0,1,913,567h-1v-4h2.1a6.37,6.37,0,0,0,4.74-1.74c1.2-1.2,2.56-3.26,4.08-7.26h-1.08Z" transform="translate(-68.86 -246)"/></svg>