<?xml version="1.0" encoding="utf-8"?>
<!-- Generator: Adobe Illustrator 16.0.0, SVG Export Plug-In . SVG Version: 6.00 Build 0)  -->
<!DOCTYPE svg PUBLIC "-//W3C//DTD SVG 1.1//EN" "http://www.w3.org/Graphics/SVG/1.1/DTD/svg11.dtd">
<svg version="1.1" id="Layer_1" xmlns="http://www.w3.org/2000/svg" xmlns:xlink="http://www.w3.org/1999/xlink" x="0px" y="0px"
	 width="61px" height="48px" viewBox="0 0 61 48" enable-background="new 0 0 61 48" xml:space="preserve">
<g id="icomoon-ignore">
	<line fill="#FFFFFF" stroke="#449FDB" x1="0" y1="0" x2="0" y2="0"/>
</g>
<path fill="#FFFFFF" d="M15.314,26.564c-4.942,0-8.952-7.63-8.952-12.62c0-4.936,4.016-8.954,8.952-8.954
	c4.934,0,8.95,4.016,8.95,8.954C24.264,18.928,20.256,26.564,15.314,26.564z M15.314,6.998c-3.834,0-6.952,3.12-6.952,6.952
	c0,4,3.25,10.62,6.952,10.62s6.95-6.62,6.95-10.62C22.264,10.116,19.146,6.998,15.314,6.998z"/>
<path fill="#FFFFFF" d="M45.316,26.564c-4.942,0-8.959-7.63-8.959-12.62c0-4.936,4.021-8.954,8.959-8.954
	c4.934,0,8.949,4.016,8.949,8.954C54.266,18.928,50.254,26.564,45.316,26.564z M45.316,6.998c-3.832,0-6.959,3.12-6.959,6.952
	c0,4,3.25,10.62,6.959,10.62c3.699,0,6.949-6.62,6.949-10.62C52.266,10.116,49.148,6.998,45.316,6.998z"/>
<path fill="#FFFFFF" d="M15.314,43.006C6.87,43.006,0,38.212,0,32.305c0-3.992,3.142-9.333,8.004-13.609
	c0.416-0.364,1.048-0.322,1.412,0.092c0.366,0.414,0.324,1.046-0.09,1.414c-4.38,3.848-7.324,8.71-7.324,12.103
	c0,4.791,5.972,8.699,13.314,8.699c1.592,0,2.598-0.208,3.952-0.527c0.534-0.125,1.076,0.207,1.202,0.746
	c0.126,0.537-0.208,1.073-0.746,1.205C18.278,42.768,17.118,43.006,15.314,43.006z"/>
<path fill="#FFFFFF" d="M27.366,26.458c-0.342,0-0.676-0.176-0.862-0.492c-1.232-2.086-2.938-3.708-5.214-5.766
	c-0.41-0.374-0.442-1.006-0.07-1.416c0.372-0.408,1.004-0.442,1.412-0.072c2.408,2.182,4.22,3.904,5.594,6.233
	c0.28,0.473,0.124,1.089-0.352,1.373C27.714,26.412,27.54,26.458,27.366,26.458z"/>
<path fill="#FFFFFF" d="M32.758,26.458c-0.172,0-0.348-0.042-0.508-0.136c-0.477-0.286-0.628-0.893-0.352-1.372
	c1.127-1.912,2.84-3.39,4.646-4.96c0.479-0.414,0.969-0.836,1.446-1.272c0.407-0.37,1.042-0.34,1.413,0.068
	c0.371,0.41,0.341,1.042-0.069,1.412c-0.487,0.448-0.987,0.876-1.479,1.302c-1.681,1.458-3.271,2.832-4.229,4.458
	C33.434,26.282,33.102,26.458,32.758,26.458z"/>
<path fill="#FFFFFF" d="M45.316,42.998c-1.648,0-3.301-0.198-4.91-0.566c-0.536-0.125-0.872-0.664-0.746-1.207
	c0.128-0.541,0.648-0.877,1.203-0.744c1.459,0.343,2.959,0.517,4.457,0.517c7.34,0,13.308-3.896,13.308-8.687
	c0-3.393-2.948-8.259-7.323-12.103c-0.414-0.37-0.459-0.998-0.091-1.414c0.364-0.414,0.996-0.458,1.408-0.09
	c4.866,4.268,8.006,9.612,8.006,13.606C60.628,38.208,53.758,42.998,45.316,42.998z"/>
<path fill="#FFFFFF" d="M22.382,39.498c-3.308,0-6-2.664-6-5.943c0-3.328,2.552-5.943,5.812-5.943c1.364,0,2.272,0.48,3.048,1
	C25.7,28.92,25.826,29.542,25.518,30c-0.306,0.458-0.93,0.58-1.386,0.279c-0.644-0.432-1.142-0.663-1.936-0.663
	c-2.138,0-3.812,1.728-3.812,3.942c0,2.172,1.794,3.94,4,3.94c0.874,0,1.77-0.306,2.458-0.836c0.438-0.336,1.066-0.254,1.402,0.18
	c0.336,0.442,0.256,1.066-0.182,1.402C25.016,39.055,23.71,39.498,22.382,39.498L22.382,39.498z"/>
<path fill="#FFFFFF" d="M40.452,39.498c-1.328,0-2.634-0.448-3.681-1.254c-0.439-0.336-0.521-0.962-0.185-1.402
	c0.336-0.434,0.962-0.52,1.399-0.18c0.689,0.533,1.587,0.836,2.457,0.836c2.207,0,4-1.766,4-3.943c0-2.209-1.68-3.943-3.809-3.943
	c-0.795,0-1.293,0.234-1.941,0.664c-0.457,0.302-1.082,0.186-1.385-0.274c-0.305-0.46-0.185-1.08,0.277-1.39
	c0.777-0.52,1.684-1,3.044-1c3.263,0,5.81,2.615,5.81,5.943C46.452,36.834,43.758,39.498,40.452,39.498z"/>
<path fill="#FFFFFF" d="M37.676,34.458h-12c-0.552,0-1-0.452-1-1c0-0.55,0.448-1,1-1h12c0.551,0,1,0.45,1,1
	C38.676,34.006,38.227,34.458,37.676,34.458z"/>
</svg>
