<?xml version="1.0" encoding="utf-8"?>
<!-- Generated by IcoMoon.io -->
<!DOCTYPE svg PUBLIC "-//W3C//DTD SVG 1.1//EN" "http://www.w3.org/Graphics/SVG/1.1/DTD/svg11.dtd">
<svg version="1.1" xmlns="http://www.w3.org/2000/svg" xmlns:xlink="http://www.w3.org/1999/xlink" width="48" height="48" viewBox="0 0 48 48">
<g id="icomoon-ignore">
	<line stroke-width="1" x1="" y1="" x2="" y2="" stroke="#3674d5" opacity=""></line>
</g>
	<path d="M23.75 33.75c-5.93 0-10.762-6.44-11.214-12.136-1.334-0.376-2.536-1.476-2.536-2.864v-4c0-1.25 1.21-2.152 2-2.608v-3.392c0-3.792 3.030-6.888 6.794-6.996 0.804-0.322 3.972-1.504 7.206-1.504 5.16 0 8 3.020 8 8.5v3.088c2 0.39 2 1.996 2 2.912v4c0 1.392-0.632 2.43-1.652 2.824-0.384 5.91-4.788 12.176-10.598 12.176zM26 2.25c-3.244 0-6.574 1.404-6.606 1.42-0.126 0.052-0.258 0.080-0.394 0.080-2.756 0-5 2.242-5 5v4c0 0.392-0.232 0.75-0.59 0.912-0.712 0.322-1.372 0.874-1.412 1.096v3.992c0 0.44 0.84 1 1.5 1 0.552 0 1 0.448 1 1 0 4.952 4.268 11 9.25 11 4.858 0 8.626-5.914 8.626-11 0-0.552 0.448-1 1-1 0.414 0 0.626-0.336 0.626-1v-4c0-1 0-1-1-1-0.55 0-1-0.448-1-1v-4c0-4.374-1.96-6.5-6-6.5z" fill="#3674d5"></path>
	<path d="M3 47.75c-0.552 0-1-0.448-1-1v-2c0-5.792 4.626-10 11-10h2.466l2.662-3.972c0.308-0.458 0.93-0.584 1.388-0.274 0.458 0.306 0.582 0.928 0.274 1.386l-2.958 4.416c-0.186 0.278-0.498 0.444-0.832 0.444h-3c-5.298 0-9 3.292-9 8v2c0 0.552-0.448 1-1 1z" fill="#3674d5"></path>
	<path d="M45 47.75c-0.55 0-1-0.448-1-1v-2c0-4.71-3.632-8-8.836-8h-3c-0.33 0-0.636-0.162-0.824-0.434l-3.246-4.72c-0.312-0.456-0.198-1.078 0.258-1.388 0.458-0.31 1.078-0.198 1.39 0.26l2.95 4.288h2.472c6.378 0 10.836 4.114 10.836 10v2c0 0.546-0.45 0.994-1 0.994z" fill="#3674d5"></path>
	<path d="M20 45.75c-0.060 0-0.122-0.006-0.182-0.018-0.324-0.058-0.598-0.276-0.732-0.576l-4-9c-0.178-0.402-0.074-0.876 0.258-1.162 0.334-0.292 0.814-0.322 1.186-0.092l8 5c0.258 0.162 0.428 0.432 0.462 0.734 0.036 0.298-0.070 0.606-0.286 0.816l-4 4c-0.188 0.194-0.444 0.298-0.706 0.298zM18.242 38.33l2.082 4.684 2.082-2.082-4.164-2.602z" fill="#3674d5"></path>
	<path d="M27.998 45.75c-0.262 0-0.518-0.104-0.708-0.292l-4-4c-0.216-0.21-0.322-0.518-0.286-0.816 0.034-0.302 0.206-0.572 0.462-0.734l8-5c0.374-0.232 0.854-0.2 1.188 0.092 0.332 0.292 0.436 0.76 0.258 1.162l-4 9c-0.134 0.3-0.408 0.518-0.732 0.576-0.058 0.006-0.122 0.012-0.182 0.012zM25.594 40.932l2.082 2.082 2.082-4.684-4.164 2.602z" fill="#3674d5"></path>
</svg>
