<?xml version="1.0" encoding="utf-8"?>
<!-- Generator: Adobe Illustrator 16.0.0, SVG Export Plug-In . SVG Version: 6.00 Build 0)  -->
<!DOCTYPE svg PUBLIC "-//W3C//DTD SVG 1.1//EN" "http://www.w3.org/Graphics/SVG/1.1/DTD/svg11.dtd">
<svg version="1.1" id="Layer_1" xmlns="http://www.w3.org/2000/svg" xmlns:xlink="http://www.w3.org/1999/xlink" x="0px" y="0px"
	 width="30px" height="30px" viewBox="0 0 30 30" enable-background="new 0 0 30 30" xml:space="preserve">
<g>
	<path d="M29.5,30h-29C0.224,30,0,29.775,0,29.5v-29C0,0.224,0.224,0,0.5,0h29C29.775,0,30,0.224,30,0.5v29
		C30,29.775,29.775,30,29.5,30z M1,29h28V1H1V29z"/>
	<path d="M27,4h-1c-0.275,0-0.5-0.224-0.5-0.5S25.725,3,26,3h1c0.275,0,0.5,0.224,0.5,0.5S27.275,4,27,4z"/>
	<path d="M20,4h-1c-0.275,0-0.5-0.224-0.5-0.5S18.725,3,19,3h1c0.275,0,0.5,0.224,0.5,0.5S20.275,4,20,4z"/>
	<path d="M12,4h-1c-0.276,0-0.5-0.224-0.5-0.5S10.724,3,11,3h1c0.276,0,0.5,0.224,0.5,0.5S12.276,4,12,4z"/>
	<path d="M5,4H4C3.724,4,3.5,3.776,3.5,3.5S3.724,3,4,3h1c0.276,0,0.5,0.224,0.5,0.5S5.276,4,5,4z"/>
	<path d="M27,27h-1c-0.275,0-0.5-0.225-0.5-0.5S25.725,26,26,26h1c0.275,0,0.5,0.225,0.5,0.5S27.275,27,27,27z"/>
	<path d="M20,27h-1c-0.275,0-0.5-0.225-0.5-0.5S18.725,26,19,26h1c0.275,0,0.5,0.225,0.5,0.5S20.275,27,20,27z"/>
	<path d="M12,27h-1c-0.276,0-0.5-0.225-0.5-0.5S10.724,26,11,26h1c0.276,0,0.5,0.225,0.5,0.5S12.276,27,12,27z"/>
	<path d="M5,27H4c-0.276,0-0.5-0.225-0.5-0.5S3.724,26,4,26h1c0.276,0,0.5,0.225,0.5,0.5S5.276,27,5,27z"/>
	<path d="M20.5,21h-11C9.224,21,9,20.775,9,20.5v-11C9,9.224,9.224,9,9.5,9h11C20.775,9,21,9.224,21,9.5v11
		C21,20.775,20.775,21,20.5,21z M10,20h10V10H10V20z"/>
	<path d="M29,21h-4.5c-0.275,0-0.5-0.225-0.5-0.5v-11C24,9.224,24.225,9,24.5,9H29c0.275,0,0.5,0.224,0.5,0.5S29.275,10,29,10h-4v10
		h4c0.275,0,0.5,0.225,0.5,0.5S29.275,21,29,21z"/>
	<path d="M5.5,21H1c-0.276,0-0.5-0.225-0.5-0.5S0.724,20,1,20h4V10H1c-0.276,0-0.5-0.224-0.5-0.5S0.724,9,1,9h4.5
		C5.776,9,6,9.224,6,9.5v11C6,20.775,5.776,21,5.5,21z"/>
	<path d="M29,6H1C0.724,6,0.5,5.776,0.5,5.5S0.724,5,1,5h28c0.275,0,0.5,0.224,0.5,0.5S29.275,6,29,6z"/>
	<path d="M29,25H1c-0.276,0-0.5-0.225-0.5-0.5S0.724,24,1,24h28c0.275,0,0.5,0.225,0.5,0.5S29.275,25,29,25z"/>
</g>
</svg>
