<?xml version="1.0" encoding="utf-8"?>
<!-- Generator: Adobe Illustrator 16.0.0, SVG Export Plug-In . SVG Version: 6.00 Build 0)  -->
<!DOCTYPE svg PUBLIC "-//W3C//DTD SVG 1.1//EN" "http://www.w3.org/Graphics/SVG/1.1/DTD/svg11.dtd">
<svg version="1.1" id="Layer_1" xmlns="http://www.w3.org/2000/svg" xmlns:xlink="http://www.w3.org/1999/xlink" x="0px" y="0px"
	 width="48px" height="48px" viewBox="0 0 48 48" enable-background="new 0 0 48 48" xml:space="preserve">
<g id="icomoon-ignore">
	<line fill="#FFFFFF" stroke="#449FDB" x1="0" y1="0" x2="0" y2="0"/>
</g>
<path fill="#FFFFFF" d="M47,38H24v-2h22V6H12v8h-2V5c0-0.552,0.448-1,1-1h36c0.55,0,1,0.448,1,1v32C48,37.552,47.55,38,47,38z"/>
<path fill="#FFFFFF" d="M13,30c-4.962,0-9-4.04-9-9s4.038-9,9-9s9,4.04,9,9S17.962,30,13,30z M13,14c-3.86,0-7,3.14-7,7
	c0,3.859,3.14,7,7,7s7-3.141,7-7C20,17.14,16.86,14,13,14z"/>
<path fill="#FFFFFF" d="M25,44H1c-0.552,0-1-0.448-1-1v-3.668c0-5.498,3.522-10.438,8.766-12.292
	c0.44-0.154,0.928,0.019,1.176,0.405l3.06,4.816l3.094-4.842c0.248-0.386,0.728-0.554,1.164-0.408
	c5.228,1.768,8.742,6.584,8.742,11.986v4C26,43.552,25.55,44,25,44z M2,42h22v-3c0-4.29-2.644-8.145-6.656-9.818l-3.502,5.482
	c-0.184,0.288-0.502,0.458-0.842,0.458l0,0c-0.342,0-0.66-0.177-0.842-0.458l-3.46-5.448c-4.036,1.755-6.696,5.722-6.696,10.118
	L2,42z"/>
<path fill="#FFFFFF" d="M38,12H26c-0.55,0-1-0.448-1-1s0.45-1,1-1h12c0.55,0,1,0.448,1,1S38.55,12,38,12z"/>
<path fill="#FFFFFF" d="M42,18H26c-0.55,0-1-0.448-1-1s0.45-1,1-1h16c0.55,0,1,0.448,1,1S42.55,18,42,18z"/>
<path fill="#FFFFFF" d="M42,24H26c-0.55,0-1-0.448-1-1s0.45-1,1-1h16c0.55,0,1,0.448,1,1S42.55,24,42,24z"/>
<path fill="#FFFFFF" d="M23.172,32.828c-0.256,0-0.512-0.098-0.708-0.292c-0.39-0.386-0.39-1.024,0-1.414l5.658-5.656
	c0.388-0.386,1.024-0.386,1.414,0c0.388,0.39,0.388,1.028,0,1.414l-5.658,5.656C23.684,32.73,23.428,32.828,23.172,32.828z"/>
</svg>
