<?xml version="1.0" encoding="utf-8"?>
<!-- Generated by IcoMoon.io -->
<!DOCTYPE svg PUBLIC "-//W3C//DTD SVG 1.1//EN" "http://www.w3.org/Graphics/SVG/1.1/DTD/svg11.dtd">
<svg version="1.1" xmlns="http://www.w3.org/2000/svg" xmlns:xlink="http://www.w3.org/1999/xlink" width="48" height="48" viewBox="0 0 48 48">
<g id="icomoon-ignore">
	<line stroke-width="1" x1="" y1="" x2="" y2="" stroke="#449FDB" opacity=""></line>
</g>
	<path d="M1.022 46.416c-0.552 0-1-0.448-1-1 0-5.792 4.626-10 11-10h2.464l2.662-3.972c0.308-0.458 0.928-0.584 1.388-0.274 0.458 0.306 0.582 0.928 0.274 1.386l-2.958 4.416c-0.186 0.278-0.498 0.444-0.832 0.444h-3c-5.298 0-9 3.292-9 8 0.002 0.552-0.448 1-0.998 1z" fill="#3674d5"></path>
	<path d="M46.978 46.416c-0.55 0-1-0.448-1-1 0-4.71-3.702-8-9-8h-3c-0.334 0-0.644-0.166-0.832-0.444l-2.958-4.416c-0.306-0.458-0.184-1.080 0.274-1.386 0.458-0.31 1.080-0.186 1.388 0.274l2.662 3.972h2.464c6.376 0 11 4.206 11 10 0.002 0.552-0.442 1-0.998 1z" fill="#3674d5"></path>
	<path d="M24.022 44.418c-0.202 0-0.402-0.060-0.574-0.182l-10-7.002c-0.456-0.316-0.562-0.94-0.246-1.392s0.944-0.562 1.392-0.244l9.426 6.6 9.382-6.6c0.456-0.314 1.074-0.208 1.394 0.244 0.318 0.456 0.208 1.074-0.244 1.392l-9.958 7.002c-0.17 0.122-0.372 0.182-0.572 0.182z" fill="#3674d5"></path>
	<path d="M24.022 38.416c-5.642 0-8.716-5.964-8.982-12.126-1.444-0.358-3.018-1.414-3.018-2.876v-4c0-1.25 1.208-2.152 2-2.608v-7.39c0-0.552 0.448-1 1-1 0.55 0 1 0.448 1 1v8c0 0.392-0.232 0.75-0.59 0.912-0.714 0.322-1.374 0.874-1.412 1.096v3.992c0.042 0.32 1.178 1 2 1 0.55 0 1 0.448 1 1 0 4.422 1.864 11 7 11 5.134 0 7-6.578 7-11 0-0.552 0.448-1 1-1 0.822 0 1.958-0.68 2-1.002v-3.998c0-1 0-1-1-1-0.552 0-1-0.448-1-1v-8c0-0.552 0.448-1 1-1 0.55 0 1 0.448 1 1v7.088c2 0.39 2 1.996 2 2.912v4c0 1.458-1.574 2.52-3.018 2.876-0.266 6.16-3.34 12.124-8.98 12.124z" fill="#3674d5"></path>
	<path d="M24.022 11.084c-0.070 0-0.138-0.008-0.208-0.022l-18.25-3.832c-0.462-0.098-0.794-0.508-0.792-0.982s0.338-0.882 0.8-0.976l18.25-3.668c0.128-0.028 0.262-0.026 0.388-0.002l18.834 3.668c0.468 0.092 0.806 0.502 0.808 0.978s-0.334 0.888-0.8 0.984l-18.834 3.832c-0.064 0.014-0.13 0.020-0.196 0.020zM10.738 6.274l13.286 2.792 13.708-2.792-13.708-2.67-13.286 2.67z" fill="#3674d5"></path>
	<path d="M24.022 16.668c-3.402 0-6.71-0.488-9.32-1.376-0.522-0.18-0.804-0.748-0.626-1.27 0.18-0.522 0.746-0.792 1.27-0.626 4.812 1.636 12.538 1.636 17.352 0 0.522-0.17 1.090 0.104 1.268 0.626 0.178 0.524-0.102 1.092-0.624 1.27-2.61 0.888-5.918 1.376-9.32 1.376z" fill="#3674d5"></path>
	<path d="M43.022 25.416h-4.020c-0.304 0-0.592-0.138-0.782-0.376s-0.262-0.546-0.196-0.848l1.996-8.888v-7.888c0-0.552 0.448-1 1-1 0.55 0 1 0.448 1 1v7.89l1.976 8.888c0.064 0.296-0.008 0.608-0.198 0.844-0.186 0.242-0.474 0.378-0.776 0.378zM40.25 23.416h1.524l-0.758-3.412-0.766 3.412z" fill="#3674d5"></path>
</svg>
