<?xml version="1.0" encoding="utf-8"?>
<!-- Generated by IcoMoon.io -->
<!DOCTYPE svg PUBLIC "-//W3C//DTD SVG 1.1//EN" "http://www.w3.org/Graphics/SVG/1.1/DTD/svg11.dtd">
<svg version="1.1" xmlns="http://www.w3.org/2000/svg" xmlns:xlink="http://www.w3.org/1999/xlink" width="48" height="48" viewBox="0 0 48 48">
<g id="icomoon-ignore">
	<line stroke-width="1" x1="" y1="" x2="" y2="" stroke="#449FDB" opacity=""></line>
</g>
	<path d="M22.5 14c5.514 0 10 4.486 10 10s-4.486 10-10 10-10-4.486-10-10 4.486-10 10-10zM22.5 12c-6.626 0-12 5.376-12 12s5.374 12 12 12c6.626 0 12-5.376 12-12s-5.374-12-12-12v0z" fill="#3674d5"></path>
	<path d="M22.5 41c-9.374 0-17-7.626-17-17s7.626-17 17-17c9.376 0 17 7.626 17 17s-7.624 17-17 17zM22.5 9c-8.272 0-15 6.726-15 15s6.728 15 15 15 15-6.726 15-15-6.728-15-15-15z" fill="#3674d5"></path>
	<path d="M31.5 11.774c-0.2 0-0.394-0.054-0.564-0.172-4.982-3.402-11.888-3.402-16.874 0-0.306 0.208-0.704 0.23-1.030 0.056-0.328-0.174-0.534-0.514-0.534-0.884v-9.774c0-0.55 0.448-1 1-1h18c0.552 0 1 0.45 1 1v9.774c0 0.376-0.206 0.71-0.534 0.884-0.144 0.076-0.304 0.116-0.464 0.116zM22.5 7c2.816 0 5.546 0.688 8 1.998v-6.998h-16v6.998c2.452-1.31 5.184-1.998 8-1.998z" fill="#3674d5"></path>
	<path d="M31.5 48h-18c-0.552 0-1-0.45-1-1v-9.774c0-0.376 0.206-0.71 0.534-0.884 0.328-0.168 0.724-0.148 1.030 0.056 4.984 3.402 11.888 3.402 16.874 0 0.306-0.208 0.704-0.224 1.032-0.056 0.328 0.174 0.534 0.514 0.534 0.884v9.774c-0.004 0.55-0.454 1-1.004 1zM14.5 46h16v-6.996c-4.902 2.622-11.098 2.622-16 0v6.996z" fill="#3674d5"></path>
	<path d="M22.5 25c-0.256 0-0.512-0.098-0.708-0.292-0.39-0.386-0.39-1.024 0-1.414l6-6c0.388-0.386 1.024-0.386 1.414 0 0.388 0.39 0.388 1.028 0 1.414l-6 6c-0.194 0.194-0.45 0.292-0.706 0.292z" fill="#3674d5"></path>
	<path d="M22.5 25c-0.256 0-0.512-0.098-0.708-0.292l-4-4c-0.39-0.386-0.39-1.024 0-1.414 0.39-0.386 1.024-0.386 1.414 0l4 4c0.39 0.39 0.39 1.028 0 1.414-0.194 0.194-0.45 0.292-0.706 0.292z" fill="#3674d5"></path>
	<path d="M41.5 27c-0.55 0-1-0.45-1-1v-4c0-0.55 0.45-1 1-1s1 0.45 1 1v4c0 0.55-0.45 1-1 1z" fill="#3674d5"></path>
</svg>
