<?xml version="1.0" encoding="utf-8"?>
<!-- Generated by IcoMoon.io -->
<!DOCTYPE svg PUBLIC "-//W3C//DTD SVG 1.1//EN" "http://www.w3.org/Graphics/SVG/1.1/DTD/svg11.dtd">
<svg version="1.1" xmlns="http://www.w3.org/2000/svg" xmlns:xlink="http://www.w3.org/1999/xlink" width="48" height="48" viewBox="0 0 48 48">
<g id="icomoon-ignore">
	<line stroke-width="1" x1="" y1="" x2="" y2="" stroke="#449FDB" opacity=""></line>
</g>
	<path d="M43 33.832h-38c-0.552 0-1-0.45-1-1v-28c0-0.552 0.448-1 1-1h38c0.55 0 1 0.448 1 1v28c0 0.55-0.45 1-1 1zM6 31.832h36v-26h-36v26z" fill="#3674d5"></path>
	<path d="M46 33.832h-44c-0.552 0-1-0.45-1-1s0.448-1 1-1h44c0.55 0 1 0.45 1 1s-0.45 1-1 1z" fill="#3674d5"></path>
	<path d="M4.166 47c-0.136 0-0.276-0.032-0.41-0.088-0.502-0.228-0.728-0.82-0.5-1.324l5.936-13.168c0.228-0.5 0.818-0.728 1.324-0.5 0.502 0.228 0.728 0.82 0.5 1.324l-5.936 13.166c-0.168 0.372-0.532 0.59-0.914 0.59z" fill="#3674d5"></path>
	<path d="M22.722 5.832c-0.136 0-0.276-0.030-0.41-0.088-0.502-0.226-0.728-0.82-0.5-1.324l1.278-2.832c0.226-0.502 0.816-0.728 1.322-0.5 0.502 0.228 0.728 0.82 0.5 1.322l-1.278 2.834c-0.166 0.37-0.53 0.588-0.912 0.588z" fill="#3674d5"></path>
	<path d="M43.834 47c-0.38 0-0.746-0.218-0.914-0.59l-5.936-13.172c-0.226-0.504-0.002-1.094 0.5-1.322 0.506-0.23 1.096-0.002 1.324 0.5l5.936 13.172c0.224 0.502 0.002 1.094-0.5 1.324-0.134 0.056-0.276 0.088-0.41 0.088z" fill="#3674d5"></path>
	<path d="M25.272 5.82c-0.382 0-0.746-0.218-0.912-0.588l-1.272-2.82c-0.228-0.502-0.002-1.094 0.5-1.322 0.506-0.23 1.096-0.002 1.322 0.5l1.272 2.82c0.228 0.504 0.002 1.096-0.5 1.324-0.136 0.056-0.272 0.086-0.41 0.086z" fill="#3674d5"></path>
	<path d="M38 29.832h-11c-0.55 0-1-0.45-1-1v-11c0-0.404 0.244-0.768 0.618-0.924 0.376-0.154 0.804-0.068 1.090 0.216l11 11c0.288 0.288 0.374 0.714 0.216 1.090-0.154 0.374-0.52 0.618-0.924 0.618zM28 27.832h7.586l-7.586-7.586v7.586z" fill="#3674d5"></path>
</svg>
