<?xml version="1.0" encoding="utf-8"?>
<!-- Generated by IcoMoon.io -->
<!DOCTYPE svg PUBLIC "-//W3C//DTD SVG 1.1//EN" "http://www.w3.org/Graphics/SVG/1.1/DTD/svg11.dtd">
<svg version="1.1" xmlns="http://www.w3.org/2000/svg" xmlns:xlink="http://www.w3.org/1999/xlink" width="48" height="48" viewBox="0 0 48 48">
<g id="icomoon-ignore">
	<line stroke-width="1" x1="" y1="" x2="" y2="" stroke="#449FDB" opacity=""></line>
</g>
	<path d="M41 48h-29c-3.308 0-6-2.692-6-6v-36c0-3.378 3.762-6 7-6h27c0.55 0 1 0.448 1 1s-0.45 1-1 1h-27c-2.25 0-5 1.846-5 4v2c0 2.154 2.75 4 5 4h28c0.55 0 1 0.448 1 1v34c0 0.55-0.45 1-1 1zM8 12.026v29.974c0 2.208 1.794 4 4 4h28v-32h-27c-1.736 0-3.624-0.754-5-1.974z" fill="#3674d5"></path>
	<path d="M38 8h-26c-0.552 0-1-0.448-1-1s0.448-1 1-1h26c0.55 0 1 0.448 1 1s-0.45 1-1 1z" fill="#3674d5"></path>
</svg>
