<?xml version="1.0" encoding="utf-8"?>
<!-- Generated by IcoMoon.io -->
<!DOCTYPE svg PUBLIC "-//W3C//DTD SVG 1.1//EN" "http://www.w3.org/Graphics/SVG/1.1/DTD/svg11.dtd">
<svg version="1.1" xmlns="http://www.w3.org/2000/svg" xmlns:xlink="http://www.w3.org/1999/xlink" width="48" height="48" viewBox="0 0 48 48">
<g id="icomoon-ignore">
	<line stroke-width="1" x1="" y1="" x2="" y2="" stroke="#449FDB" opacity=""></line>
</g>
	<path d="M45 48h-42c-0.552 0-1-0.448-1-1v-26c0-0.552 0.448-1 1-1h42c0.55 0 1 0.448 1 1v26c0 0.552-0.45 1-1 1zM4 46h40v-24h-40v24z" fill="#3674d5"></path>
	<path d="M47 22h-46c-0.552 0-1-0.448-1-1v-8c0-0.552 0.448-1 1-1h46c0.55 0 1 0.448 1 1v8c0 0.552-0.45 1-1 1zM2 20h44v-6h-44v6z" fill="#3674d5"></path>
	<path d="M20 22h2v24h-2v-24z" fill="#3674d5"></path>
	<path d="M26 22h2v24h-2v-24z" fill="#3674d5"></path>
	<path d="M20 14h2v6h-2v-6z" fill="#3674d5"></path>
	<path d="M26 14h2v6h-2v-6z" fill="#3674d5"></path>
	<path d="M24 14c-0.552 0-1-0.448-1-1 0-9.928-4.546-11-6.5-11-3.028 0-3.416 1.586-3.416 2.968 0 2.846 4.502 7.032 5.916 7.032 0.552 0 1 0.448 1 1s-0.448 1-1 1c-2.484 0-7.916-5.152-7.916-9.032 0-3.158 1.974-4.968 5.416-4.968 1.994 0 8.5 0.938 8.5 13 0 0.552-0.448 1-1 1z" fill="#3674d5"></path>
	<path d="M29 14c-0.55 0-1-0.448-1-1s0.45-1 1-1c1.416 0 5.916-4.186 5.916-7.032 0-1.382-0.388-2.968-3.416-2.968-1.954 0-6.5 1.072-6.5 11 0 0.552-0.448 1-1 1s-1-0.448-1-1c0-12.062 6.506-13 8.5-13 3.442 0 5.416 1.81 5.416 4.968 0 3.88-5.432 9.032-7.916 9.032z" fill="#3674d5"></path>
</svg>
