<?xml version="1.0" encoding="utf-8"?>
<!-- Generated by IcoMoon.io -->
<!DOCTYPE svg PUBLIC "-//W3C//DTD SVG 1.1//EN" "http://www.w3.org/Graphics/SVG/1.1/DTD/svg11.dtd">
<svg version="1.1" xmlns="http://www.w3.org/2000/svg" xmlns:xlink="http://www.w3.org/1999/xlink" width="48" height="48" viewBox="0 0 48 48">
<g id="icomoon-ignore">
	<line stroke-width="1" x1="" y1="" x2="" y2="" stroke="#449FDB" opacity=""></line>
</g>
	<path d="M0 41.982h48v2h-48v-2z" fill="#3674d5"></path>
	<path d="M4 0h2v48h-2v-48z" fill="#3674d5"></path>
	<path d="M10 39c-0.338 0-0.67-0.172-0.86-0.486-0.288-0.474-0.128-1.086 0.346-1.374l10-6c0.248-0.148 0.548-0.18 0.83-0.090l11.414 3.802 13.562-13.562c0.386-0.39 1.024-0.39 1.414 0 0.386 0.39 0.386 1.026 0 1.414l-14 14c-0.274 0.266-0.66 0.364-1.028 0.242l-11.558-3.858-9.612 5.764c-0.154 0.106-0.332 0.148-0.508 0.148z" fill="#3674d5"></path>
	<path d="M16 28h-6c-0.55 0-1-0.45-1-1s0.45-1 1-1h5.838l5.846-1.948c0.102-0.036 0.206-0.052 0.316-0.052h9.708l13.754-8.842c0.462-0.296 1.082-0.164 1.38 0.302 0.298 0.464 0.164 1.084-0.298 1.382l-14 9c-0.166 0.104-0.352 0.158-0.544 0.158h-9.838l-5.846 1.95c-0.102 0.032-0.206 0.050-0.316 0.050z" fill="#3674d5"></path>
	<path d="M18 21.25c-0.070 0-0.14-0.006-0.21-0.022l-8-1.75c-0.542-0.118-0.882-0.65-0.766-1.19 0.118-0.54 0.646-0.882 1.192-0.764l7.458 1.63 7.616-7.73c0.352-0.356 0.906-0.398 1.304-0.104l5.224 3.866 5.396-6.806c0.192-0.242 0.482-0.38 0.786-0.38h8c0.55 0 1 0.448 1 1s-0.45 1-1 1h-7.518l-5.702 7.186c-0.336 0.42-0.95 0.5-1.376 0.182l-5.302-3.92-7.386 7.504c-0.192 0.194-0.45 0.298-0.716 0.298z" fill="#3674d5"></path>
</svg>
