<?xml version="1.0" encoding="utf-8"?>
<!-- Generated by IcoMoon.io -->
<!DOCTYPE svg PUBLIC "-//W3C//DTD SVG 1.1//EN" "http://www.w3.org/Graphics/SVG/1.1/DTD/svg11.dtd">
<svg version="1.1" xmlns="http://www.w3.org/2000/svg" xmlns:xlink="http://www.w3.org/1999/xlink" width="48" height="48" viewBox="0 0 48 48">
<g id="icomoon-ignore">
	<line stroke-width="1" x1="" y1="" x2="" y2="" stroke="#449FDB" opacity=""></line>
</g>
	<path d="M11.116 37.774c-3.434 0-6.782-0.21-10.24-0.644-0.5-0.068-0.876-0.494-0.876-0.998v-24.002c0-0.286 0.124-0.56 0.338-0.75s0.504-0.28 0.786-0.242c3.378 0.426 6.65 0.632 10.004 0.632 4.572 0 8.746-0.39 12.782-0.766 4.082-0.384 8.3-0.778 12.968-0.778 3.438 0 6.788 0.212 10.246 0.646 0.502 0.062 0.876 0.488 0.876 0.992v24.002c0 0.288-0.126 0.56-0.338 0.75-0.216 0.19-0.504 0.278-0.788 0.242-3.376-0.426-6.648-0.632-10-0.632-4.578 0-8.75 0.39-12.788 0.77-4.080 0.382-8.302 0.778-12.97 0.778zM2.002 35.25c3.066 0.352 6.056 0.526 9.114 0.526 4.574 0 8.75-0.392 12.786-0.77 4.084-0.38 8.304-0.78 12.972-0.78 3.062 0 6.060 0.168 9.126 0.516v-21.99c-3.066-0.354-6.056-0.526-9.12-0.526-4.574 0-8.75 0.39-12.786 0.77-4.082 0.38-8.3 0.776-12.966 0.776-3.066 0-6.062-0.168-9.13-0.514v21.992z" fill="#3674d5"></path>
	<path d="M10.116 33.774c-1.088 0-1.372-0.022-1.932-0.066-0.516-0.042-1.278-0.102-3.224-0.18-0.536-0.024-0.958-0.462-0.958-1v-15.98c0-0.27 0.11-0.532 0.306-0.72s0.474-0.288 0.73-0.28c1.968 0.076 2.756 0.13 3.286 0.168 0.532 0.038 0.792 0.054 1.808 0.054 4.672 0 9.324-0.378 13.654-0.788l1.592-0.15c3.414-0.326 6.358-0.608 10.254-0.608 2.198 0 5.46 0.086 7.452 0.248 0.518 0.044 0.918 0.478 0.918 0.998v15.978c0 0.28-0.116 0.542-0.32 0.732s-0.466 0.286-0.754 0.266c-2.038-0.15-5.084-0.218-7.052-0.218-4.758 0-9.026 0.398-13.152 0.788-4.202 0.39-8.138 0.758-12.608 0.758zM6.002 31.57c1.304 0.058 1.908 0.11 2.34 0.14 0.516 0.042 0.776 0.062 1.774 0.062 4.378 0 8.266-0.364 12.384-0.75 4.208-0.394 8.522-0.796 13.376-0.796 1.684 0 4.144 0.048 6.126 0.156v-13.98c-1.926-0.116-4.572-0.178-6.37-0.178-3.8 0-6.706 0.278-10.062 0.598l-1.598 0.152c-4.378 0.414-9.084 0.796-13.84 0.796-1.096 0-1.376-0.018-1.948-0.058-0.414-0.030-0.988-0.070-2.182-0.122v13.98z" fill="#3674d5"></path>
	<path d="M23.002 21.226c1.654 0 3 1.346 3 3s-1.346 3-3 3-3-1.346-3-3 1.346-3 3-3zM23.002 19.226c-2.762 0-5 2.238-5 5s2.238 5 5 5 5-2.238 5-5-2.238-5-5-5v0z" fill="#3674d5"></path>
</svg>
