<?xml version="1.0" encoding="utf-8"?>
<!-- Generated by IcoMoon.io -->
<!DOCTYPE svg PUBLIC "-//W3C//DTD SVG 1.1//EN" "http://www.w3.org/Graphics/SVG/1.1/DTD/svg11.dtd">
<svg version="1.1" xmlns="http://www.w3.org/2000/svg" xmlns:xlink="http://www.w3.org/1999/xlink" width="48" height="48" viewBox="0 0 48 48">
<g id="icomoon-ignore">
	<line stroke-width="1" x1="" y1="" x2="" y2="" stroke="#449FDB" opacity=""></line>
</g>
	<path d="M40 48h-32c-0.552 0-1-0.45-1-1v-46c0-0.55 0.448-1 1-1h32c0.55 0 1 0.45 1 1v46c0 0.55-0.45 1-1 1zM9 46h30v-44h-30v44z" fill="#3674d5"></path>
	<path d="M32 26h-16c-0.552 0-1-0.45-1-1v-16c0-0.55 0.448-1 1-1h16c0.55 0 1 0.45 1 1v16c0 0.55-0.45 1-1 1zM17 24h14v-14h-14v14z" fill="#3674d5"></path>
	<path d="M31 32h-14c-0.552 0-1-0.45-1-1s0.448-1 1-1h14c0.55 0 1 0.45 1 1s-0.45 1-1 1z" fill="#3674d5"></path>
	<path d="M31 36h-14c-0.552 0-1-0.45-1-1s0.448-1 1-1h14c0.55 0 1 0.45 1 1s-0.45 1-1 1z" fill="#3674d5"></path>
</svg>
