<?xml version="1.0" encoding="utf-8"?>
<!-- Generated by IcoMoon.io -->
<!DOCTYPE svg PUBLIC "-//W3C//DTD SVG 1.1//EN" "http://www.w3.org/Graphics/SVG/1.1/DTD/svg11.dtd">
<svg version="1.1" xmlns="http://www.w3.org/2000/svg" xmlns:xlink="http://www.w3.org/1999/xlink" width="48" height="48" viewBox="0 0 48 48">
<g id="icomoon-ignore">
	<line stroke-width="1" x1="" y1="" x2="" y2="" stroke="#449FDB" opacity=""></line>
</g>
	<path d="M24 45.804c-5.626 0-11.252-2.126-15.534-6.376-0.392-0.39-0.394-1.024-0.006-1.414 0.39-0.394 1.026-0.394 1.414-0.004 7.79 7.73 20.462 7.73 28.252 0 5.024-4.984 7.004-12.32 5.17-19.138-0.144-0.532 0.17-1.080 0.704-1.222 0.534-0.146 1.082 0.172 1.226 0.706 2.020 7.51-0.16 15.588-5.694 21.078-4.282 4.248-9.906 6.37-15.532 6.37z" fill="#3674d5"></path>
	<path d="M3.738 30.386c-0.44 0-0.844-0.292-0.964-0.738-2.020-7.51 0.162-15.586 5.694-21.080 8.566-8.502 22.504-8.502 31.068 0 0.39 0.39 0.394 1.024 0.006 1.414-0.388 0.392-1.026 0.396-1.414 0.006-7.792-7.734-20.462-7.734-28.252 0-5.024 4.986-7.004 12.32-5.17 19.138 0.142 0.534-0.172 1.082-0.706 1.226-0.088 0.026-0.176 0.034-0.262 0.034z" fill="#3674d5"></path>
	<path d="M8.154 48c-0.040 0-0.082-0.002-0.124-0.008-0.548-0.068-0.938-0.566-0.87-1.118l1.018-8.278c0.048-0.402 0.334-0.732 0.724-0.842l8.092-2.248c0.534-0.146 1.084 0.166 1.232 0.696 0.148 0.536-0.164 1.082-0.696 1.234l-7.45 2.068-0.936 7.618c-0.060 0.506-0.492 0.878-0.99 0.878z" fill="#3674d5"></path>
	<path d="M30.738 12.528c-0.44 0-0.84-0.29-0.962-0.732-0.148-0.532 0.164-1.082 0.696-1.23l7.448-2.070 0.94-7.618c0.068-0.546 0.556-0.938 1.114-0.868 0.548 0.066 0.94 0.566 0.87 1.112l-1.020 8.28c-0.046 0.402-0.332 0.736-0.722 0.842l-8.094 2.248c-0.094 0.026-0.184 0.036-0.27 0.036z" fill="#3674d5"></path>
</svg>
