<?xml version="1.0" encoding="utf-8"?>
<!-- Generated by IcoMoon.io -->
<!DOCTYPE svg PUBLIC "-//W3C//DTD SVG 1.1//EN" "http://www.w3.org/Graphics/SVG/1.1/DTD/svg11.dtd">
<svg version="1.1" xmlns="http://www.w3.org/2000/svg" xmlns:xlink="http://www.w3.org/1999/xlink" width="48" height="48" viewBox="0 0 48 48">
<g id="icomoon-ignore">
	<line stroke-width="1" x1="" y1="" x2="" y2="" stroke="#449FDB" opacity=""></line>
</g>
	<path d="M41 48h-34c-0.552 0-1-0.45-1-1v-46c0-0.55 0.448-1 1-1h34c0.55 0 1 0.45 1 1v46c0 0.55-0.45 1-1 1zM8 46h32v-44h-32v44z" fill="#3674d5"></path>
	<path d="M34 18h-20c-0.552 0-1-0.45-1-1s0.448-1 1-1h20c0.55 0 1 0.45 1 1s-0.45 1-1 1z" fill="#3674d5"></path>
	<path d="M34 22h-20c-0.552 0-1-0.45-1-1s0.448-1 1-1h20c0.55 0 1 0.45 1 1s-0.45 1-1 1z" fill="#3674d5"></path>
	<path d="M34 26h-20c-0.552 0-1-0.45-1-1s0.448-1 1-1h20c0.55 0 1 0.45 1 1s-0.45 1-1 1z" fill="#3674d5"></path>
	<path d="M18 10h-2v-2l2-2z" fill="#3674d5"></path>
	<path d="M14 10h-2v-2l2-2z" fill="#3674d5"></path>
	<path d="M30 34h2v2l-2 2z" fill="#3674d5"></path>
	<path d="M34 34h2v2l-2 2z" fill="#3674d5"></path>
</svg>
